<?xml version="1.0" standalone="no"?>
<!DOCTYPE svg PUBLIC "-//W3C//DTD SVG 20010904//EN"
 "http://www.w3.org/TR/2001/REC-SVG-20010904/DTD/svg10.dtd">
<svg version="1.0" xmlns="http://www.w3.org/2000/svg"
 width="260.000000pt" height="260.000000pt" viewBox="0 0 260.000000 260.000000"
 preserveAspectRatio="xMidYMid meet">
<metadata>
Created by potrace 1.14, written by Peter Selinger 2001-2017
</metadata>
<g transform="translate(0.000000,260.000000) scale(0.100000,-0.100000)"
fill="#000000" stroke="none">
<path d="M1175 2593 c-250 -30 -464 -113 -650 -251 -120 -89 -259 -242 -334
-364 -94 -156 -181 -416 -181 -544 l0 -34 50 0 c49 0 50 1 50 30 0 17 7 66 16
108 84 413 389 760 784 895 87 30 214 57 265 57 l35 0 0 55 c0 30 -1 54 -2 54
-2 -1 -16 -4 -33 -6z"/>
<path d="M1410 2540 c0 -47 2 -50 25 -50 14 0 61 -7 103 -16 470 -96 840 -466
936 -936 9 -42 16 -86 16 -98 0 -17 6 -20 50 -20 59 0 59 0 35 128 -77 407
-360 764 -740 934 -126 57 -315 108 -397 108 -27 0 -28 -2 -28 -50z"/>
<path d="M643 1940 c-83 -27 -176 -100 -219 -170 -114 -185 -57 -448 116 -535
106 -54 268 -58 396 -10 115 44 107 44 99 -6 -33 -217 -138 -316 -368 -348
-43 -6 -112 -11 -153 -11 l-74 0 0 -71 0 -72 133 6 c212 9 348 53 449 147 100
91 158 221 179 401 21 181 -2 363 -61 479 -43 84 -91 134 -167 172 -57 28 -76
32 -166 35 -82 2 -114 -1 -164 -17z m260 -142 c77 -43 121 -147 133 -309 l7
-86 -58 -28 c-88 -41 -192 -59 -267 -46 -123 21 -178 94 -178 236 0 67 4 90
26 133 45 91 130 136 238 127 34 -3 76 -14 99 -27z"/>
<path d="M1739 1946 c-150 -43 -260 -177 -306 -375 -26 -108 -25 -385 0 -494
24 -102 86 -225 137 -271 90 -81 214 -116 340 -97 186 29 307 155 362 379 31
125 31 379 0 504 -42 168 -115 273 -229 330 -56 27 -76 31 -161 34 -60 2 -114
-2 -143 -10z m199 -142 c20 -8 52 -29 70 -47 37 -35 85 -121 80 -143 -2 -8
-115 -97 -253 -199 -249 -184 -250 -184 -258 -157 -10 32 0 216 15 287 13 64
57 161 91 201 58 68 170 94 255 58z m178 -674 c-45 -212 -159 -313 -316 -279
-44 9 -63 21 -105 63 -51 50 -95 140 -78 157 5 4 121 91 258 192 l250 185 3
-123 c2 -81 -3 -148 -12 -195z"/>
<path d="M2496 1214 c-3 -9 -6 -29 -6 -45 0 -46 -29 -176 -57 -259 -117 -342
-400 -626 -743 -743 -80 -27 -213 -57 -255 -57 -23 0 -25 -3 -25 -50 0 -49 0
-50 31 -50 17 0 75 9 128 20 298 61 573 234 760 480 155 204 233 400 265 673
l6 47 -49 0 c-35 0 -51 -4 -55 -16z"/>
<path d="M7 1178 c18 -152 53 -285 111 -413 184 -411 576 -700 1025 -753 l67
-8 0 53 0 53 -35 0 c-20 0 -71 7 -113 16 -470 96 -840 466 -936 936 -9 42 -16
93 -16 113 l0 35 -53 0 -54 0 4 -32z"/>
</g>
</svg>
